<svg width="34" height="34" viewBox="0 0 34 34" fill="none" xmlns="http://www.w3.org/2000/svg"><path d="M15.5858 1.44368C16.3669 0.66263 17.6332 0.66263 18.4142 1.44368L21.2427 4.2721C22.0237 5.05315 22.0237 6.31948 21.2427 7.10053L7.10052 21.2427C6.31948 22.0237 5.05315 22.0237 4.2721 21.2427L2.85788 19.8285C1.29579 18.2664 1.29579 15.7337 2.85788 14.1716L15.5858 1.44368Z" fill="#364364"/><path d="M2.85788 19.8285C1.29579 18.2664 1.29579 15.7337 2.85788 14.1716L4.27208 12.7574C5.05313 11.9763 6.31946 11.9763 7.10051 12.7574L21.2426 26.8995C22.0237 27.6806 22.0237 28.9469 21.2426 29.7279L18.4142 32.5564C17.6332 33.3374 16.3668 33.3374 15.5858 32.5564L2.85788 19.8285Z" fill="#364364"/></svg>